<?xml version="1.0" standalone="no"?>
<!DOCTYPE svg PUBLIC "-//W3C//DTD SVG 1.1//EN" "http://www.w3.org/Graphics/SVG/1.1/DTD/svg11.dtd" >
<svg xmlns="http://www.w3.org/2000/svg">
<metadata>
Created by FontPrep 20130207 at Thu Oct  9 10:08:55 2014
 By Peace
Copyright (c) 2013 by Charles Daoud. All rights reserved.
</metadata>
<defs>
<font id="fec9f6fcb4968bdb55d51825d606908a" horiz-adv-x='1024' >
  <font-face 
    font-family="Dense-Regular"
    font-weight="400"
    font-stretch="normal"
    units-per-em="2048"
    panose-1="2 0 0 0 0 0 0 0 0 0"
    ascent="1679"
    descent="-369"
    x-height="999"
    cap-height="1382"
    bbox="-41 -369 1487 1679"
    underline-thickness="102"
    underline-position="-102"
    unicode-range="U+0020-FB04"
  />
<missing-glyph horiz-adv-x="1320" 
d="M61 506v600h1199v-600h-1199zM1061 983h100v31h-131v-416h137v31h-106v159h74v35h-74v160zM938 713v-41q0 -20 -14 -34t-34 -15q-20 0 -34 14t-14 35v65l-33 -4v-61q0 -33 24 -57q25 -23 57 -23t56 24t23 56v41q0 22 -19 51l-98 117q-10 12 -10 30v29q0 20 14 34t34 15
q20 0 34 -14t14 -35v-55l31 2v53q0 32 -24 56q-25 24 -57 24t-56 -24t-23 -56v-29q0 -24 18 -51l99 -117q12 -12 12 -30zM575 1014v-416h33v332l105 -332h35v416h-35v-314l-99 314h-39zM410 983h100v31h-135v-416h139v31h-104v159h73v35h-73v160zM313 684v244q1 34 -25 60
t-61 26h-73v-416h73q35 0 61 26t25 60zM283 928v-244q-1 -23 -17 -39t-39 -16h-43v354h43q23 0 39 -16t17 -39z" />
    <glyph glyph-name="f_f" unicode="ff" horiz-adv-x="729" 
d="M244 893v-893h-107v893h-110v106h110v187q-1 82 57 139t140 57h39v-106h-39q-37 0 -64 -27t-26 -63v-187h225v187q0 82 57 139t140 57h39v-106h-39q-37 0 -64 -27t-27 -63v-187h130v-106h-130v-893h-106v893h-225z" />
    <glyph glyph-name="fi" unicode="fi" horiz-adv-x="663" 
d="M575 999v-999h-106v893h-225v-893h-107v893h-110v106h110v187q-1 82 57 139t140 57h241v-106h-241q-37 0 -64 -27t-26 -63v-187h331z" />
    <glyph glyph-name="fl" unicode="fl" horiz-adv-x="675" 
d="M616 96v-106q-61 0 -104 43t-43 104v1139h-135q-37 0 -64 -27t-26 -63v-187h129v-106h-129v-893h-107v893h-110v106h110v187q-1 82 57 139t140 57h241v-1245q1 -17 13 -29t28 -12z" />
    <glyph glyph-name="f_f_i" unicode="ffi" horiz-adv-x="995" 
d="M801 0v893h-226v-893h-106v893h-225v-893h-107v893h-110v106h110v187q-1 82 57 139t140 57h39v-106h-39q-37 0 -64 -27t-26 -63v-187h225v187q0 82 57 139t140 57h241v-106h-241q-37 0 -64 -27t-27 -63v-187h332v-999h-106z" />
    <glyph glyph-name="f_f_l" unicode="ffl" horiz-adv-x="1007" 
d="M948 96v-106q-61 0 -104 43t-43 104v1139h-135q-37 0 -64 -27t-27 -63v-187h130v-106h-130v-893h-106v893h-225v-893h-107v893h-110v106h110v187q-1 82 57 139t140 57h39v-106h-39q-37 0 -64 -27t-26 -63v-187h225v187q0 82 57 139t140 57h241v-1245q1 -17 13 -29t28 -12
z" />
    <glyph glyph-name=".notdef" horiz-adv-x="1320" 
d="M61 506v600h1199v-600h-1199zM1061 983h100v31h-131v-416h137v31h-106v159h74v35h-74v160zM938 713v-41q0 -20 -14 -34t-34 -15q-20 0 -34 14t-14 35v65l-33 -4v-61q0 -33 24 -57q25 -23 57 -23t56 24t23 56v41q0 22 -19 51l-98 117q-10 12 -10 30v29q0 20 14 34t34 15
q20 0 34 -14t14 -35v-55l31 2v53q0 32 -24 56q-25 24 -57 24t-56 -24t-23 -56v-29q0 -24 18 -51l99 -117q12 -12 12 -30zM575 1014v-416h33v332l105 -332h35v416h-35v-314l-99 314h-39zM410 983h100v31h-135v-416h139v31h-104v159h73v35h-73v160zM313 684v244q1 34 -25 60
t-61 26h-73v-416h73q35 0 61 26t25 60zM283 928v-244q-1 -23 -17 -39t-39 -16h-43v354h43q23 0 39 -16t17 -39z" />
    <glyph glyph-name=".null" horiz-adv-x="0" 
 />
    <glyph glyph-name="nonmarkingreturn" horiz-adv-x="681" 
 />
    <glyph glyph-name="space" unicode=" " horiz-adv-x="270" 
 />
    <glyph glyph-name="exclam" unicode="!" horiz-adv-x="319" 
d="M106 1382h107v-1110h-107v1110zM213 0h-107v145h107v-145z" />
    <glyph glyph-name="quotedbl" unicode="&#x22;" horiz-adv-x="407" 
d="M242 1135v247h106l-33 -247h-73zM76 1135v247h106l-32 -247h-74z" />
    <glyph glyph-name="numbersign" unicode="#" horiz-adv-x="976" 
d="M371 811v-240h239v240h-239zM909 811h-207v-240h207v-92h-207v-399l-92 -12v411h-239v-399l-92 -12v411h-211v92h211v240h-211v92h211v400l92 12v-412h239v400l92 12v-412h207v-92z" />
    <glyph glyph-name="dollar" unicode="$" horiz-adv-x="667" 
d="M68 1044v93q0 96 60 169t153 91v121l106 12v-133q93 -18 153 -91t60 -169v-172l-106 -13v185q0 67 -48 113t-112 46q-66 0 -113 -47t-47 -112v-93q0 -58 37 -102l326 -387q63 -76 63 -176v-133q0 -96 -60 -170t-153 -90v-121l-106 -12v133q-92 16 -153 90q-60 74 -60 170
v203l106 12v-215q0 -66 47 -113t113 -47t112 47t48 113v133q0 57 -29 92l-336 401q-61 74 -61 172z" />
    <glyph glyph-name="percent" unicode="%" horiz-adv-x="1089" 
d="M938 158v362q0 32 -23 54t-53 22t-54 -23q-22 -23 -22 -53v-362q0 -31 23 -54q23 -22 53 -22t54 22q22 22 22 54zM694 158v362q0 70 49 119t119 49t119 -49t49 -119v-362q0 -70 -49 -119t-119 -49t-119 49t-49 119zM305 862v363q-1 31 -23 53t-53 22t-53 -22t-22 -53
v-363q0 -32 22 -54t54 -22q30 0 52 22t23 54zM61 862v363q-1 71 49 119t120 48t118 -48q49 -50 49 -119v-363q0 -70 -49 -119t-119 -49t-119 49t-49 119zM121 47l770 1335l80 -47l-770 -1335z" />
    <glyph glyph-name="ampersand" unicode="&#x26;" horiz-adv-x="768" 
d="M354 743h367v-106h-143q61 -78 61 -178v-195q0 -119 -83 -202q-83 -82 -202 -82q-120 0 -202 82t-82 202v195q0 150 127 235q-86 74 -86 187v278q0 102 71 173q72 71 172 71t172 -71t72 -173v-133l-106 -12v145q0 57 -40 97t-98 40t-97 -40q-40 -40 -40 -97v-278
q0 -57 40 -97t97 -41zM532 264v195q0 74 -52 126t-126 52t-126 -52t-52 -126v-195q0 -74 52 -126t126 -52t126 52t52 126z" />
    <glyph glyph-name="quotesingle" unicode="'" horiz-adv-x="264" 
d="M68 1006l34 376h111l-63 -376h-82z" />
    <glyph glyph-name="parenleft" unicode="(" horiz-adv-x="380" 
d="M344 -213v-45q-119 0 -202 256t-83 618v2q0 362 83 618t202 257v-45q-74 0 -126 -243t-52 -587v-2q0 -344 52 -586t126 -243z" />
    <glyph glyph-name="parenright" unicode=")" horiz-adv-x="380" 
d="M37 -258v45q74 0 126 243t52 586v2q0 344 -52 587t-126 243v45q119 0 202 -256t83 -619v-2q0 -362 -83 -618t-202 -256z" />
    <glyph glyph-name="asterisk" unicode="*" horiz-adv-x="512" 
d="M283 979h-56v154l-133 -76l-26 47l133 78l-133 75l26 48l133 -78v155h56v-155l135 78l26 -48l-133 -75l133 -78l-26 -47l-135 76v-154z" />
    <glyph glyph-name="plus" unicode="+" horiz-adv-x="659" 
d="M383 694h203v-106h-203v-203h-107v203h-202v106h202v203h107v-203z" />
    <glyph glyph-name="comma" unicode="," horiz-adv-x="364" 
d="M236 18q0 -53 -31 -89t-76 -35v43q20 0 37 19q16 19 16 44h-53v145h107v-127z" />
    <glyph glyph-name="hyphen" unicode="-" horiz-adv-x="548" 
d="M469 530h-389v107h389v-107z" />
    <glyph glyph-name="period" unicode="." horiz-adv-x="266" 
d="M80 145h106v-145h-106v145z" />
    <glyph glyph-name="slash" unicode="/" horiz-adv-x="624" 
d="M506 1493h92l-479 -1604h-92z" />
    <glyph glyph-name="zero" unicode="0" horiz-adv-x="712" 
d="M96 240v903q0 106 77 183t183 77t184 -77t76 -183v-903q0 -109 -76 -185q-76 -75 -184 -75q-106 0 -183 76t-77 184zM203 1143v-903q0 -62 45 -108t108 -46t109 45q45 45 45 109v903q0 63 -45 108t-109 45t-108 -45q-45 -45 -45 -108z" />
    <glyph glyph-name="one" unicode="1" horiz-adv-x="327" 
d="M217 0h-106v1372l106 10v-1382z" />
    <glyph glyph-name="two" unicode="2" horiz-adv-x="665" 
d="M496 1008v129q0 67 -47 113t-113 46t-113 -47t-47 -112v-168l-106 -13v181q0 111 78 189t188 77q110 0 188 -78t78 -188v-129q0 -45 -41 -127l-348 -650q-37 -70 -37 -125h416v-106h-522v106q0 73 36 148l347 649q43 80 43 105z" />
    <glyph glyph-name="three" unicode="3" horiz-adv-x="684" 
d="M307 745h31q66 -1 113 47t47 113v232q0 67 -47 113t-113 46t-113 -47t-47 -112v-133l-106 -13v146q0 111 78 189t188 77q110 0 188 -78t78 -188v-232q0 -66 -39 -129t-88 -84q49 -23 88 -86t39 -127v-233q0 -111 -78 -189q-78 -77 -188 -77t-188 78t-78 188v133l106 12
v-145q0 -66 47 -113t113 -47t113 47t47 113v233q0 66 -47 113t-113 47h-31v106z" />
    <glyph glyph-name="four" unicode="4" horiz-adv-x="698" 
d="M457 426v711l-307 -711h307zM563 1382v-956h88v-107h-88v-319h-106v319h-414v107l414 956h106z" />
    <glyph glyph-name="five" unicode="5" horiz-adv-x="679" 
d="M575 1276h-387v-457q70 51 170 51t179 -78q78 -78 77 -188v-358q0 -111 -78 -189q-78 -77 -188 -77t-188 78t-78 188v125l106 12v-137q0 -66 48 -113t112 -47q66 0 113 47t47 113v358q0 66 -47 113t-109 47t-106 -38q-45 -38 -56 -95l-108 22v729h493v-106z" />
    <glyph glyph-name="six" unicode="6" horiz-adv-x="704" 
d="M522 246v321q0 66 -47 113t-113 47t-112 -47t-47 -113v-321q0 -66 47 -113q46 -47 112 -47t113 47t47 113zM629 567v-321q0 -111 -78 -189q-78 -77 -189 -77q-110 0 -188 78t-78 188v891q0 111 78 189t188 77q110 0 189 -78q78 -78 78 -188v-115l-107 -12v127
q0 67 -47 113t-113 46t-112 -47t-47 -112v-355q70 52 170 52t178 -78t78 -189z" />
    <glyph glyph-name="seven" unicode="7" horiz-adv-x="585" 
d="M557 1382v-53l-338 -1329h-106l323 1276h-391v106h512z" />
    <glyph glyph-name="eight" unicode="8" horiz-adv-x="692" 
d="M186 1137v-211q0 -66 47 -113t113 -47t113 47t47 113v211q0 67 -47 113t-113 46t-113 -46t-47 -113zM80 926v211q0 111 78 189t188 77q110 0 189 -78q78 -78 77 -188v-211q0 -66 -39 -129t-88 -84q49 -23 88 -86t39 -127v-254q0 -111 -78 -189q-78 -77 -188 -77t-188 78
t-78 188v254q0 62 39 126t88 87q-49 19 -88 83t-39 130zM186 500v-254q0 -66 47 -113t113 -47t113 47t47 113v254q0 66 -47 112t-113 47q-66 -1 -113 -47t-47 -112z" />
    <glyph glyph-name="nine" unicode="9" horiz-adv-x="704" 
d="M182 1137v-322q0 -66 47 -113t113 -47t113 47t47 113v322q0 67 -47 113t-113 46t-113 -46t-47 -113zM76 815v322q0 111 78 189t188 77q110 0 188 -78t78 -188v-891q0 -111 -78 -189q-78 -77 -188 -77t-188 78t-78 188v114l106 13v-127q0 -66 47 -113t113 -47t113 47
t47 113v354q-70 -51 -170 -51q-100 -1 -178 77t-78 189z" />
    <glyph glyph-name="colon" unicode=":" horiz-adv-x="266" 
d="M80 842h106v-146h-106v146zM80 145h106v-145h-106v145z" />
    <glyph glyph-name="semicolon" unicode=";" horiz-adv-x="266" 
d="M186 18q0 -53 -30 -89t-76 -35v43q20 0 37 19q16 19 16 44h-53v145h106v-127zM80 842h106v-146h-106v146z" />
    <glyph glyph-name="less" unicode="&#x3c;" horiz-adv-x="565" 
d="M375 295l-326 346l326 346h110l-325 -346l325 -346h-110z" />
    <glyph glyph-name="equal" unicode="=" horiz-adv-x="598" 
d="M84 547h430v-107h-430v107zM84 842h430v-107h-430v107z" />
    <glyph glyph-name="greater" unicode="&#x3e;" horiz-adv-x="565" 
d="M516 641l-326 -346h-110l326 346l-326 346h110z" />
    <glyph glyph-name="question" unicode="?" horiz-adv-x="665" 
d="M510 977v141q0 74 -52 126t-125 52t-125 -52t-52 -126v-143l-107 -12v155q0 119 83 202t201 83t201 -83t82 -202v-141q0 -64 -38 -127l-205 -287q-23 -33 -23 -74v-217h-106v217q0 79 41 142l192 266q33 45 33 80zM244 145h106v-145h-106v145z" />
    <glyph glyph-name="at" unicode="@" horiz-adv-x="1044" 
d="M633 211v577q0 47 -34 81t-81 34t-81 -34t-34 -81v-577q0 -47 34 -81t81 -34t81 34t34 81zM518 -117h279v-106h-279q-182 0 -312 130t-130 312v569q0 182 130 312t312 131q182 0 312 -130t131 -313v-634q-1 -68 -49 -116t-124 -48t-118 80q-52 -80 -148 -80t-161 64
t-64 157v577q0 92 57 157q56 65 146 65t147 -88l19 77h73v-845q-1 -23 17 -40q18 -18 41 -18t40 18t17 40v634q0 140 -98 238t-238 98t-237 -98q-98 -98 -99 -238v-569q0 -139 98 -237t238 -99z" />
    <glyph glyph-name="A" unicode="A" 
d="M326 1264l-123 -803h248l-121 803h-4zM418 1382l211 -1382h-107l-55 354h-281l-53 -354h-106l211 1382h180z" />
    <glyph glyph-name="B" unicode="B" horiz-adv-x="698" 
d="M209 745h129q76 1 128 53t52 128v170q0 76 -52 128t-128 52h-129v-531zM518 287v172q0 76 -52 128t-128 52h-129v-533h129q76 0 128 52t52 129zM338 0h-236v1382h236q119 0 203 -84t84 -202v-170q0 -147 -121 -234q121 -90 121 -233v-172q0 -119 -84 -203t-203 -84z" />
    <glyph glyph-name="C" unicode="C" horiz-adv-x="694" 
d="M518 1137q0 67 -47 113t-113 46t-112 -47t-47 -112v-891q0 -66 47 -113q46 -47 112 -47t113 47t47 113v188h107v-188q0 -111 -78 -189q-78 -77 -189 -77q-110 0 -188 78t-78 188v891q0 111 78 189t188 77q110 0 189 -78q78 -78 78 -188v-205l-107 -12v217z" />
    <glyph glyph-name="D" unicode="D" horiz-adv-x="722" 
d="M635 1096v-809q0 -119 -84 -203t-203 -84h-246v1382h246q119 0 203 -84t84 -202zM528 287v809q0 76 -52 128t-128 52h-139v-1170h139q76 0 128 52t52 129z" />
    <glyph glyph-name="E" unicode="E" horiz-adv-x="604" 
d="M545 1276h-336v-531h248v-108h-248v-531h352v-106h-459v1382h443v-106z" />
    <glyph glyph-name="F" unicode="F" horiz-adv-x="589" 
d="M545 1276h-336v-531h248v-108h-248v-637h-107v1382h443v-106z" />
    <glyph glyph-name="G" unicode="G" horiz-adv-x="706" 
d="M358 602v107h267v-729l-90 18v47q-76 -65 -182 -65q-105 0 -183 78t-78 188v891q0 111 78 189t188 77q110 0 189 -78q78 -78 78 -188v-164l-107 -12v176q0 67 -47 113t-113 46t-112 -47t-47 -112v-891q0 -66 47 -113q46 -47 112 -47t113 47t47 113v356h-160z" />
    <glyph glyph-name="H" unicode="H" horiz-adv-x="737" 
d="M528 1382h107v-1382h-107v639h-319v-639h-107v1382h107v-637h319v637z" />
    <glyph glyph-name="I" unicode="I" horiz-adv-x="311" 
d="M209 0h-107v1382h107v-1382z" />
    <glyph glyph-name="J" unicode="J" horiz-adv-x="675" 
d="M471 246v1136h107v-1136q0 -111 -78 -189q-78 -77 -189 -77t-189 78t-77 188v131l107 12v-143q0 -66 47 -113t113 -47t112 47q47 47 47 113z" />
    <glyph glyph-name="K" unicode="K" horiz-adv-x="675" 
d="M102 0v1382h107v-637h102l232 637h106l-254 -690l254 -692h-106l-232 639h-102v-639h-107z" />
    <glyph glyph-name="L" unicode="L" horiz-adv-x="579" 
d="M209 106h334v-106h-441v1382h107v-1276z" />
    <glyph glyph-name="M" unicode="M" horiz-adv-x="987" 
d="M209 1159v-1159h-107v1382h160l227 -1218h5l229 1218h162v-1382h-107v1169h-4l-221 -1169h-121l-219 1159h-4z" />
    <glyph glyph-name="N" unicode="N" horiz-adv-x="770" 
d="M102 0v1382h129l326 -1048h4v1048h107v-1382h-107l-348 1106h-4v-1106h-107z" />
    <glyph glyph-name="O" unicode="O" horiz-adv-x="716" 
d="M92 246v891q0 111 78 189t188 77q110 0 189 -78q78 -78 78 -188v-891q0 -111 -78 -189q-78 -77 -189 -77q-110 0 -188 78t-78 188zM199 1137v-891q0 -66 47 -113q46 -47 112 -47t113 47t47 113v891q0 67 -47 113t-113 46t-112 -46t-47 -113z" />
    <glyph glyph-name="P" unicode="P" horiz-adv-x="673" 
d="M338 602h-129v-602h-107v1382h236q119 0 203 -84t84 -202v-207q0 -119 -84 -203t-203 -84zM209 709h129q76 0 128 52t52 128v207q0 76 -52 128t-128 52h-129v-567z" />
    <glyph glyph-name="Q" unicode="Q" horiz-adv-x="716" 
d="M199 1137v-891q0 -66 47 -113q46 -47 112 -47t113 47t47 113v891q0 67 -47 113t-113 46t-112 -46t-47 -113zM92 246v891q0 111 78 189t188 77q110 0 189 -78q78 -78 78 -188v-891q-1 -96 -61 -170t-152 -90v-174l-107 -13v187q-93 16 -153 90t-60 170z" />
    <glyph glyph-name="R" unicode="R" horiz-adv-x="704" 
d="M209 745h129q76 1 128 53t52 128v170q0 76 -52 128t-128 52h-129v-531zM625 459v-459h-107v459q0 76 -52 128t-128 52h-129v-639h-107v1382h236q119 0 203 -84t84 -202v-170q0 -147 -121 -234q121 -90 121 -233z" />
    <glyph glyph-name="S" unicode="S" horiz-adv-x="671" 
d="M70 1044v93q0 111 78 189t188 77q110 0 188 -78t78 -188v-172l-106 -13v185q0 67 -47 113t-113 46t-113 -47t-47 -112v-93q0 -58 29 -90l334 -399q63 -76 63 -176v-133q0 -111 -78 -189q-78 -77 -188 -77t-189 78q-78 78 -77 188v203l106 12v-215q0 -66 47 -113t113 -47
t113 47t47 113v133q0 51 -39 106l-326 387q-61 74 -61 172z" />
    <glyph glyph-name="T" unicode="T" horiz-adv-x="569" 
d="M530 1382v-106h-190v-1276h-109v1276h-192v106h491z" />
    <glyph glyph-name="U" unicode="U" horiz-adv-x="729" 
d="M524 1382h107v-1136q0 -111 -78 -189q-79 -77 -189 -77t-188 78t-78 188v1136h107v-1136q0 -66 47 -113t113 -47q67 0 113 47t46 113v1136z" />
    <glyph glyph-name="V" unicode="V" 
d="M330 119l192 1263h107l-211 -1382h-180l-211 1382h106l193 -1263h4z" />
    <glyph glyph-name="W" unicode="W" horiz-adv-x="987" 
d="M967 1382l-248 -1382h-127l-96 543h-4l-97 -543h-127l-248 1382h107l203 -1142h4l106 602l-96 540h107l202 -1142h4l203 1142h107z" />
    <glyph glyph-name="X" unicode="X" horiz-adv-x="659" 
d="M631 1382l-230 -692l230 -690h-107l-192 584h-4l-193 -584h-106l229 690l-229 692h106l193 -583h4l192 583h107z" />
    <glyph glyph-name="Y" unicode="Y" horiz-adv-x="630" 
d="M369 0h-107v635l-248 747h107l192 -583h4l193 583h106l-247 -747v-635z" />
    <glyph glyph-name="Z" unicode="Z" horiz-adv-x="610" 
d="M37 0v53l407 1223h-387v106h508v-53l-403 -1223h403v-106h-528z" />
    <glyph glyph-name="bracketleft" unicode="[" horiz-adv-x="442" 
d="M399 1587v-92h-204v-1690h204v-92h-297v1874h297z" />
    <glyph glyph-name="backslash" unicode="\" horiz-adv-x="624" 
d="M27 1493h92l479 -1604h-92z" />
    <glyph glyph-name="bracketright" unicode="]" horiz-adv-x="442" 
d="M43 1495v92h297v-1874h-297v92h205v1690h-205z" />
    <glyph glyph-name="asciicircum" unicode="^" horiz-adv-x="761" 
d="M381 1538l311 -293v-123l-311 293l-311 -293v123z" />
    <glyph glyph-name="underscore" unicode="_" horiz-adv-x="718" 
d="M639 -113h-559v93h559v-93z" />
    <glyph glyph-name="grave" unicode="`" horiz-adv-x="262" 
d="M231 1059l-200 90v106l200 -90v-106z" />
    <glyph glyph-name="a" unicode="a" horiz-adv-x="587" 
d="M498 801v-658q0 -16 11 -26t26 -11v-106q-66 0 -109 47q-62 -57 -152 -57t-154 64t-65 157v113q0 45 23 84t45 55l180 104q34 21 62 59q27 38 26 74v101q0 43 -30 73q-31 30 -73 29q-42 0 -72 -30t-30 -72v-119l-106 -12v131q0 86 61 147q61 62 147 62t148 -62t62 -147z
M162 324v-113q0 -47 34 -81t80 -34t81 34q34 34 34 81v291l-35 -27l-157 -90q-37 -20 -37 -61z" />
    <glyph glyph-name="b" unicode="b" horiz-adv-x="610" 
d="M195 788v-577q-1 -47 33 -81t81 -34t81 34t34 81v577q0 47 -34 81t-81 34t-81 -34t-33 -81zM88 0v1370l107 12v-442q57 70 139 70t139 -65t57 -157v-577q0 -92 -57 -157q-57 -64 -146 -64t-147 88l-18 -78h-74z" />
    <glyph glyph-name="c" unicode="c" horiz-adv-x="579" 
d="M412 330h106v-119q0 -92 -64 -157q-64 -64 -157 -64q-92 0 -157 64t-64 157v577q0 92 64 157q65 65 157 65t157 -65t64 -157v-116l-106 -13v129q0 47 -34 81t-81 34t-81 -34t-34 -81v-577q0 -47 34 -81t81 -34t81 34t34 81v119z" />
    <glyph glyph-name="d" unicode="d" horiz-adv-x="610" 
d="M416 211v577q0 47 -34 81t-81 34t-81 -34t-34 -81v-577q0 -47 34 -81t81 -34t81 34t34 81zM522 0h-73l-19 78q-56 -88 -146 -88t-147 64t-57 157v577q0 92 57 157t139 65t140 -70v430l106 12v-1382z" />
    <glyph glyph-name="e" unicode="e" horiz-adv-x="585" 
d="M182 788v-200h230v200q0 47 -34 81t-81 34t-81 -34t-34 -81zM518 211q0 -92 -64 -157q-64 -64 -157 -64q-92 0 -157 64t-64 157v577q0 92 64 157q65 65 157 65t157 -65t64 -157v-307h-336v-270q0 -47 34 -81t81 -34t81 34t34 81v119l106 12v-131z" />
    <glyph glyph-name="f" unicode="f" horiz-adv-x="397" 
d="M27 893v106h110v187q-1 82 57 139t140 57h39v-106h-39q-37 0 -64 -27t-26 -63v-187h129v-106h-129v-893h-107v893h-110z" />
    <glyph glyph-name="g" unicode="g" horiz-adv-x="577" 
d="M172 -16v-95q0 -47 34 -81t81 -33q47 0 81 34t33 80v95q0 47 -33 81q-34 33 -81 33t-81 -34t-34 -80zM401 537v251q0 47 -33 81q-34 34 -81 34t-81 -34t-34 -81v-251q0 -47 34 -81t81 -34t81 34q33 34 33 81zM66 -111v95q0 115 90 178q-31 39 -31 96t31 98
q-90 68 -90 181v251q0 92 57 157t146 65t147 -88l18 77h74v-462q0 -92 -65 -157t-156 -65q-23 0 -39 -16t-16 -39t16 -39t39 -16q93 0 157 -65t64 -156v-95q0 -93 -65 -157t-157 -64t-156 64t-64 157z" />
    <glyph glyph-name="h" unicode="h" horiz-adv-x="616" 
d="M195 788v-788h-107v1370l107 12v-442q57 70 139 70t139 -65t57 -157v-788h-106v788q0 47 -34 81t-81 34t-81 -34t-33 -81z" />
    <glyph glyph-name="i" unicode="i" horiz-adv-x="282" 
d="M88 1114v143h107v-143h-107zM195 0h-107v999h107v-999z" />
    <glyph glyph-name="j" unicode="j" horiz-adv-x="282" 
d="M88 1114v143h107v-143h-107zM195 999v-1134q1 -82 -57 -139t-140 -58h-39v107h39q38 1 64 27t26 63v1134h107z" />
    <glyph glyph-name="k" unicode="k" horiz-adv-x="585" 
d="M195 500v-500h-107v1370l107 12v-776h75l179 393h106l-201 -446l201 -553h-106l-183 500h-71z" />
    <glyph glyph-name="l" unicode="l" horiz-adv-x="296" 
d="M238 96v-106q-61 0 -105 43q-43 43 -43 104v1233l107 12v-1245q1 -17 13 -29t28 -12z" />
    <glyph glyph-name="m" unicode="m" horiz-adv-x="952" 
d="M760 0v788q0 47 -34 81t-81 34t-81 -34t-34 -81v-788h-106v788q0 47 -34 81t-81 34t-81 -34t-33 -81v-788h-107v999h74l18 -77q58 88 150 88t151 -74q63 74 159 74t162 -65q65 -65 64 -157v-788h-106z" />
    <glyph glyph-name="n" unicode="n" horiz-adv-x="616" 
d="M195 0h-107v999h74l18 -77q56 88 146 88t147 -65t57 -157v-788h-106v788q0 47 -34 81t-81 34t-81 -34t-33 -81v-788z" />
    <glyph glyph-name="o" unicode="o" horiz-adv-x="593" 
d="M182 788v-577q0 -47 34 -81t81 -34t81 34t34 81v577q0 47 -34 81t-81 34t-81 -34t-34 -81zM76 211v577q0 92 64 157q65 65 157 65t157 -65t64 -157v-577q0 -92 -64 -157q-64 -64 -157 -64q-92 0 -157 64q-64 65 -64 157z" />
    <glyph glyph-name="p" unicode="p" horiz-adv-x="610" 
d="M195 788v-577q-1 -47 33 -81t81 -34t81 34t34 81v577q0 47 -34 81t-81 34t-81 -34t-33 -81zM88 999h74l18 -77q56 88 146 88t147 -65t57 -157v-577q0 -92 -57 -157q-57 -64 -139 -64t-139 69v-378l-107 -13v1331z" />
    <glyph glyph-name="q" unicode="q" horiz-adv-x="610" 
d="M416 211v577q0 47 -34 81t-81 34t-81 -34t-34 -81v-577q0 -47 34 -81t81 -34t81 34t34 81zM522 999v-1318l-106 -13v391q-58 -69 -140 -69t-139 64t-57 157v577q0 92 57 157t146 65t147 -88l19 77h73z" />
    <glyph glyph-name="r" unicode="r" horiz-adv-x="413" 
d="M393 1010v-107h-76q-51 0 -87 -36t-35 -89v-778h-107v999h74l18 -77q57 88 213 88z" />
    <glyph glyph-name="s" unicode="s" horiz-adv-x="559" 
d="M393 211v86q0 54 -35 86l-221 184q-72 59 -71 168v62q0 88 62 150q62 63 150 63t151 -62q62 -62 63 -151v-92l-107 -13v105q0 45 -31 75q-32 30 -76 31q-44 0 -75 -31t-31 -75v-62q0 -54 25 -76l231 -194q72 -59 72 -168v-86q0 -92 -65 -157q-65 -64 -157 -64t-156 64
q-65 64 -65 157v98l107 13v-111q0 -47 34 -81t81 -34t81 34t33 81z" />
    <glyph glyph-name="t" unicode="t" horiz-adv-x="415" 
d="M25 893v106h129v193l106 12v-205h129v-106h-129v-756q0 -16 12 -28t29 -13v-106q-61 0 -104 43t-43 104v756h-129z" />
    <glyph glyph-name="u" unicode="u" horiz-adv-x="616" 
d="M422 999h106v-999h-73l-19 78q-57 -88 -146 -88t-147 64q-57 65 -57 157v788h107v-788q-1 -47 33 -81t81 -34t81 34t34 81v788z" />
    <glyph glyph-name="v" unicode="v" horiz-adv-x="528" 
d="M496 999l-168 -999h-127l-168 999h106l123 -784h4l123 784h107z" />
    <glyph glyph-name="w" unicode="w" horiz-adv-x="790" 
d="M393 463l-65 -463h-127l-168 999h106l123 -784h4l76 496l-47 288h106l123 -784h4l123 784h107l-168 -999h-127l-66 463h-4z" />
    <glyph glyph-name="x" unicode="x" horiz-adv-x="528" 
d="M262 385l-123 -385h-106l178 500l-178 499h106l123 -385h4l123 385h107l-179 -499l179 -500h-107l-123 385h-4z" />
    <glyph glyph-name="y" unicode="y" horiz-adv-x="526" 
d="M76 -332v107q42 -1 70 27t36 55l8 28l21 115l-178 999h106l123 -784h4l123 784h107l-199 -1114q-2 -8 -5 -23q-2 -15 -20 -52t-40 -66q-22 -28 -64 -52t-92 -24z" />
    <glyph glyph-name="z" unicode="z" horiz-adv-x="495" 
d="M49 893v106h397v-53l-274 -840h274v-106h-397v53l273 840h-273z" />
    <glyph glyph-name="braceleft" unicode="{" horiz-adv-x="425" 
d="M252 567v-725q0 -14 11 -25t26 -12h92v-92h-92q-53 0 -91 38t-38 91v725q0 13 -10 25t-27 12h-92v92h92q17 0 27 10t10 27v725q0 53 38 91t91 38h92v-92h-92q-13 0 -25 -10t-12 -27v-725q0 -53 -51 -82v-2q51 -29 51 -82z" />
    <glyph glyph-name="bar" unicode="|" horiz-adv-x="296" 
d="M102 1587h93v-1718l-93 -12v1730z" />
    <glyph glyph-name="braceright" unicode="}" horiz-adv-x="425" 
d="M266 733q0 -35 37 -37h92v-92h-92q-17 0 -27 -11t-10 -26v-725q0 -53 -38 -91t-91 -38h-92v92h92q13 -1 25 11t12 26v725q0 53 51 82v2q-51 29 -51 82v725q0 16 -11 26t-26 11h-92v92h92q53 0 91 -38t38 -91v-725z" />
    <glyph glyph-name="asciitilde" unicode="~" horiz-adv-x="780" 
d="M612 573v52h93v-52q-1 -76 -53 -128t-128 -52t-128 52t-52 128q0 37 -26 63t-62 26t-62 -26t-26 -63v-51h-92v51q0 76 52 128q52 53 128 53t128 -52t52 -129q0 -37 26 -63t62 -25q36 -1 62 25t26 63z" />
    <glyph glyph-name="exclamdown" unicode="&#xa1;" horiz-adv-x="319" 
d="M106 0v1110h107v-1110h-107zM213 1382v-145h-107v145h107z" />
    <glyph glyph-name="cent" unicode="&#xa2;" horiz-adv-x="589" 
d="M520 788v-116l-106 -13v129q0 47 -34 81t-81 34t-81 -34t-34 -81v-577q0 -47 34 -81t81 -34t81 34t34 81v119h106v-119q0 -78 -47 -138t-121 -77v-131l-106 -12v143q-74 16 -121 76t-47 139v577q0 78 47 138t121 78v131l106 12v-143q74 -18 121 -78t47 -138z" />
    <glyph glyph-name="sterling" unicode="&#xa3;" horiz-adv-x="729" 
d="M63 0v106q70 0 119 50t49 118v412h-168v92h168v410q1 90 63 152t152 62t152 -62t64 -152h-107q0 45 -32 77q-32 31 -77 31q-44 0 -76 -32t-32 -76v-410h217v-92h-217v-412q0 -96 -59 -168h108q70 0 119 50t49 118h107q0 -114 -81 -194t-194 -80h-324z" />
    <glyph glyph-name="currency" unicode="&#xa4;" horiz-adv-x="917" 
d="M217 731q0 -100 71 -171t171 -71t171 71t70 171q0 100 -70 171q-71 71 -171 71t-171 -71t-71 -171zM807 730q0 -112 -68 -206l113 -110l-76 -76l-112 111q-92 -66 -205 -66t-205 66l-111 -111l-75 76l110 110q-68 90 -68 204t66 206l-108 110l75 76l109 -108
q90 68 204 68t210 -70l110 110l76 -76l-111 -110q66 -92 66 -204z" />
    <glyph glyph-name="yen" unicode="&#xa5;" horiz-adv-x="688" 
d="M86 528v107h205l-248 747h107l192 -583h4l193 583h106l-248 -747h205v-107h-205v-106h205v-107h-205v-315h-106v315h-205v107h205v106h-205z" />
    <glyph glyph-name="brokenbar" unicode="&#xa6;" horiz-adv-x="296" 
d="M104 596h93v-674l-93 -12v686zM104 1493h93v-674l-93 -12v686z" />
    <glyph glyph-name="section" unicode="&#xa7;" horiz-adv-x="604" 
d="M168 616v-77q0 -48 25 -76l6 -10l139 -166q43 10 72 48t28 85v112q0 51 -24 78l-8 13l-111 131q-53 -4 -90 -43t-37 -95zM76 539v77q0 74 43 134t110 81l-100 121q-53 61 -53 146v78q0 94 66 160t161 67q94 0 160 -67t65 -160v-146l-90 -10v156q0 57 -39 97t-96 40
t-96 -40t-39 -97v-78q0 -48 25 -76l6 -10l276 -330q53 -63 53 -150v-112q0 -68 -36 -123t-93 -84l76 -90q53 -63 53 -150v-112q0 -94 -66 -161t-159 -67q-94 0 -161 67t-66 161v172l92 10v-182q0 -57 39 -97t96 -40t96 40t39 97v112q0 50 -32 90l-277 330q-53 61 -53 146z
" />
    <glyph glyph-name="dieresis" unicode="&#xa8;" horiz-adv-x="348" 
d="M317 1200v-125h-106v125h106zM137 1200v-125h-106v125h106z" />
    <glyph glyph-name="copyright" unicode="&#xa9;" horiz-adv-x="1155" 
d="M117 655q0 -190 135 -325q136 -135 326 -135t325 135t135 325q0 189 -135 325t-325 136t-326 -135q-135 -136 -135 -326zM49 655q0 217 156 373t373 156q216 0 372 -156t156 -373t-156 -373t-372 -155q-216 -1 -373 155q-156 156 -156 373zM750 555v-20q0 -72 -52 -122
q-52 -51 -120 -51q-70 0 -121 50t-51 123v241q0 72 51 122t121 50t120 -50t52 -122v-31l-68 -8v39q0 43 -31 74t-73 31t-74 -31q-31 -31 -31 -74v-241q0 -43 31 -74t74 -31q44 0 74 31t30 74v20h68z" />
    <glyph glyph-name="ordfeminine" unicode="&#xaa;" horiz-adv-x="520" 
d="M391 1237v-461q0 -25 27 -24v-76q-47 0 -76 33q-46 -39 -108 -39t-107 45t-45 108v80q0 33 16 60t33 36l14 11l111 63q61 37 61 94v70q1 29 -21 51t-52 21q-30 0 -49 -22q-20 -22 -21 -50v-84l-76 -8v92q0 59 44 102t104 43t102 -43q43 -43 43 -102zM156 903v-80
q0 -33 24 -57t58 -23q32 0 56 24t23 56v205l-24 -18l-111 -64q-26 -14 -26 -43z" />
    <glyph glyph-name="guillemotleft" unicode="&#xab;" horiz-adv-x="630" 
d="M453 164l-203 346l203 346h106l-203 -346l203 -346h-106zM254 164l-203 346l203 346h106l-202 -346l202 -346h-106z" />
    <glyph glyph-name="logicalnot" unicode="&#xac;" horiz-adv-x="1054" 
d="M862 653h-778v107h885v-398l-107 -12v303z" />
    <glyph glyph-name="registered" unicode="&#xae;" horiz-adv-x="1155" 
d="M682 762v41q0 33 -23 55t-55 23h-131v-197h131q34 0 56 22t22 56zM682 365v172q0 33 -23 55t-55 22h-131v-249h-67v585h198q58 0 102 -43t44 -102v-45q0 -74 -72 -111q72 -37 72 -110v-174h-68zM117 657q0 -190 135 -325q136 -135 326 -135t325 135t135 325
q0 189 -135 325t-325 136t-326 -135q-135 -136 -135 -326zM49 657q0 219 156 374t373 155q216 0 372 -155t156 -374t-156 -373t-372 -155q-216 1 -373 155q-156 154 -156 373z" />
    <glyph glyph-name="macron" unicode="&#xaf;" horiz-adv-x="348" 
d="M317 1200v-104h-286v104h286z" />
    <glyph glyph-name="degree" unicode="&#xb0;" horiz-adv-x="479" 
d="M137 1219q0 -43 30 -73t73 -30q42 0 72 30t30 73t-30 73t-72 29q-42 1 -73 -29q-30 -30 -30 -73zM55 1219q1 76 55 130t130 54t130 -54t54 -130t-54 -130q-54 -55 -130 -55t-130 54t-55 131z" />
    <glyph glyph-name="plusminus" unicode="&#xb1;" horiz-adv-x="679" 
d="M596 340h-512v106h512v-106zM393 819h203v-106h-203v-203h-106v203h-203v106h203v203h106v-203z" />
    <glyph glyph-name="twosuperior" unicode="&#xb2;" horiz-adv-x="489" 
d="M168 1225v-21l-92 -12v33q0 71 49 119t119 48t118 -48q48 -50 50 -119v-13q0 -44 -27 -98l-203 -291q-14 -20 -14 -26h244v-92h-336v92q0 38 20 71l6 13l203 290q14 20 14 41v13q-1 31 -23 53t-52 22t-54 -22q-22 -22 -22 -53z" />
    <glyph glyph-name="threesuperior" unicode="&#xb3;" horiz-adv-x="475" 
d="M70 1225q0 71 49 119t119 48t118 -48q48 -50 50 -119v-60q0 -80 -74 -123q74 -43 74 -120v-60q0 -70 -50 -119t-118 -49q-70 0 -119 49t-49 119v21h92v-21q0 -32 22 -54t54 -22t54 23t21 53v60q-1 32 -23 54t-52 21h-21v93h21q32 0 54 22t21 53v60q-1 31 -23 53t-52 22
t-54 -22q-23 -22 -22 -53v-8l-92 -13v21z" />
    <glyph glyph-name="acute" unicode="&#xb4;" horiz-adv-x="262" 
d="M231 1149l-200 -90v106l200 90v-106z" />
    <glyph glyph-name="mu" unicode="&#xb5;" horiz-adv-x="645" 
d="M100 999h107v-788q0 -47 34 -81t81 -34q46 0 80 34t34 81v788h107v-999h-74l-18 78q-57 -88 -156 -88q-47 0 -88 22v-331l-107 -13v1331z" />
    <glyph glyph-name="paragraph" unicode="&#xb6;" horiz-adv-x="897" 
d="M338 709h129v567h-129q-76 0 -128 -52t-52 -128v-207q0 -76 52 -128t128 -52zM338 1382h448v-1382h-106v1276h-107v-1276h-106v602h-129q-119 0 -203 84t-84 203v207q0 118 84 202t203 84z" />
    <glyph glyph-name="periodcentered" unicode="&#xb7;" horiz-adv-x="266" 
d="M80 780h106v-145h-106v145z" />
    <glyph glyph-name="cedilla" unicode="&#xb8;" horiz-adv-x="266" 
d="M98 0h54v-43q36 -6 60 -34q24 -29 24 -69t-30 -70t-73 -30t-73 30t-29 73h65q0 -17 12 -27t25 -10q14 0 26 10q11 10 11 26t-11 27q-11 10 -26 11h-35v106z" />
    <glyph glyph-name="onesuperior" unicode="&#xb9;" horiz-adv-x="260" 
d="M84 705v665l92 12v-677h-92z" />
    <glyph glyph-name="ordmasculine" unicode="&#xba;" horiz-adv-x="495" 
d="M168 1229v-406q0 -33 24 -57t56 -23q32 0 56 24t24 56v406q0 33 -24 57t-56 23q-32 1 -56 -23t-24 -57zM92 823v406q0 63 45 108t111 45t110 -45t45 -108v-406q0 -63 -45 -108q-44 -45 -110 -45t-111 45t-45 108z" />
    <glyph glyph-name="guillemotright" unicode="&#xbb;" horiz-adv-x="630" 
d="M381 510l-203 -346h-106l202 346l-202 346h106zM580 510l-203 -346h-107l203 346l-203 346h107z" />
    <glyph glyph-name="onequarter" unicode="&#xbc;" horiz-adv-x="956" 
d="M109 705v665l92 12v-677h-92zM762 215v279q-10 -18 -26 -48l-48 -90q-33 -61 -55 -102l-23 -39h152zM854 678v-463h39v-92h-39v-123h-92v123h-244v92l258 463h78zM43 47l770 1335l80 -47l-770 -1335z" />
    <glyph glyph-name="onehalf" unicode="&#xbd;" horiz-adv-x="1028" 
d="M725 520v-20l-92 -13v33q0 70 49 119t119 49t119 -49t49 -119v-12q0 -56 -21 -86l-6 -12l-203 -291q-14 -20 -14 -27h244v-92h-336v92q0 32 26 84l203 291q14 20 15 41v12q0 32 -23 54q-24 22 -54 22t-52 -22t-23 -54zM125 705v665l92 12v-677h-92zM39 47l770 1335
l80 -47l-770 -1335z" />
    <glyph glyph-name="threequarters" unicode="&#xbe;" horiz-adv-x="1036" 
d="M842 215v279q-10 -18 -26 -48l-48 -90q-33 -61 -55 -102l-23 -39h152zM934 678v-463h39v-92h-39v-123h-92v123h-244v92l258 463h78zM63 1225q-1 71 49 119t120 48t118 -48q49 -50 49 -119v-60q0 -80 -73 -123q74 -43 73 -120v-60q0 -70 -49 -119t-119 -49q-71 0 -119 49
t-49 119v21h93v-21q0 -32 22 -54t54 -22q30 0 53 23t22 53v60q-1 32 -23 54t-53 21h-20v93h20q31 0 54 22t22 53v60q-1 31 -23 53t-53 22t-53 -22t-22 -53v-8l-93 -13v21zM123 47l770 1335l80 -47l-770 -1335z" />
    <glyph glyph-name="questiondown" unicode="&#xbf;" horiz-adv-x="665" 
d="M156 406v-142q0 -74 52 -126t125 -52t125 52t52 126v144l106 12v-156q0 -119 -82 -202q-82 -82 -201 -82q-118 0 -201 82t-83 202v142q0 69 37 126l207 287q23 33 22 74v217h107v-217q0 -80 -31 -125l-203 -283q-32 -44 -32 -79zM422 1237h-107v145h107v-145z" />
    <glyph glyph-name="Agrave" unicode="&#xc0;" 
d="M428 1464l-201 90v107l201 -90v-107zM326 1264l-123 -803h248l-121 803h-4zM418 1382l211 -1382h-107l-55 354h-281l-53 -354h-106l211 1382h180z" />
    <glyph glyph-name="Aacute" unicode="&#xc1;" 
d="M428 1532l-201 -90v106l201 90v-106zM326 1264l-123 -803h248l-121 803h-4zM418 1382l211 -1382h-107l-55 354h-281l-53 -354h-106l211 1382h180z" />
    <glyph glyph-name="Acircumflex" unicode="&#xc2;" 
d="M328 1661l139 -90v-107l-139 90l-140 -90v107zM326 1264l-123 -803h248l-121 803h-4zM418 1382l211 -1382h-107l-55 354h-281l-53 -354h-106l211 1382h180z" />
    <glyph glyph-name="Atilde" unicode="&#xc3;" 
d="M254 1577v-66h-74v66q0 39 27 65t65 27q38 0 66 -27q27 -27 27 -55t18 -28t18 18v63h74v-63q-1 -39 -27 -66t-65 -27t-66 28q-27 26 -26 65q-1 18 -19 18t-18 -18zM326 1264l-123 -803h248l-121 803h-4zM418 1382l211 -1382h-107l-55 354h-281l-53 -354h-106l211 1382
h180z" />
    <glyph glyph-name="Adieresis" unicode="&#xc4;" 
d="M471 1610v-125h-106v125h106zM291 1610v-125h-107v125h107zM326 1264l-123 -803h248l-121 803h-4zM418 1382l211 -1382h-107l-55 354h-281l-53 -354h-106l211 1382h180z" />
    <glyph glyph-name="Aring" unicode="&#xc5;" 
d="M262 1497q0 -27 18 -46t48 -19q29 0 47 19t18 46t-18 46t-47 19q-30 0 -48 -18q-18 -20 -18 -47zM326 1264l-123 -803h248l-121 803h-4zM197 1497q0 53 39 92t92 39t92 -39t39 -103t-68 -104h27l211 -1382h-107l-55 354h-281l-53 -354h-106l211 1382h26q-67 37 -67 115z
" />
    <glyph glyph-name="AE" unicode="&#xc6;" horiz-adv-x="1007" 
d="M326 1264l-123 -803h248l-121 803h-4zM948 1382v-106h-514l82 -531h344v-108h-328l80 -531h353v-106h-443l-55 354h-281l-53 -354h-106l211 1382h710z" />
    <glyph glyph-name="Ccedilla" unicode="&#xc7;" horiz-adv-x="694" 
d="M518 1137q0 67 -47 113t-113 46t-112 -47t-47 -112v-891q0 -66 47 -113q46 -47 112 -47t113 47t47 113v188h107v-188q0 -104 -69 -179t-171 -85v-25q37 -6 61 -34q24 -29 23 -69q0 -40 -30 -70q-31 -30 -73 -30t-72 30t-30 73h66q0 -17 11 -27t25 -10t26 10q11 10 11 26
t-11 27q-11 10 -25 11h-35v88q-102 10 -171 85t-69 179v891q0 111 78 189t188 77q110 0 189 -78q78 -78 78 -188v-205l-107 -12v217z" />
    <glyph glyph-name="Egrave" unicode="&#xc8;" horiz-adv-x="604" 
d="M424 1464l-201 90v107l201 -90v-107zM545 1276h-336v-531h248v-108h-248v-531h352v-106h-459v1382h443v-106z" />
    <glyph glyph-name="Eacute" unicode="&#xc9;" horiz-adv-x="604" 
d="M424 1554l-201 -90v107l201 90v-107zM545 1276h-336v-531h248v-108h-248v-531h352v-106h-459v1382h443v-106z" />
    <glyph glyph-name="Ecircumflex" unicode="&#xca;" horiz-adv-x="604" 
d="M332 1661l139 -90v-107l-139 90l-139 -90v107zM545 1276h-336v-531h248v-108h-248v-531h352v-106h-459v1382h443v-106z" />
    <glyph glyph-name="Edieresis" unicode="&#xcb;" horiz-adv-x="604" 
d="M467 1589v-125h-107v125h107zM287 1589v-125h-107v125h107zM545 1276h-336v-531h248v-108h-248v-531h352v-106h-459v1382h443v-106z" />
    <glyph glyph-name="Igrave" unicode="&#xcc;" horiz-adv-x="311" 
d="M256 1464l-201 90v107l201 -90v-107zM209 0h-107v1382h107v-1382z" />
    <glyph glyph-name="Iacute" unicode="&#xcd;" horiz-adv-x="311" 
d="M256 1554l-201 -90v107l201 90v-107zM209 0h-107v1382h107v-1382z" />
    <glyph glyph-name="Icircumflex" unicode="&#xce;" horiz-adv-x="311" 
d="M156 1661l139 -90v-107l-139 90l-140 -90v107zM209 0h-107v1382h107v-1382z" />
    <glyph glyph-name="Idieresis" unicode="&#xcf;" horiz-adv-x="311" 
d="M299 1589v-125h-106v125h106zM119 1589v-125h-107v125h107zM209 0h-107v1382h107v-1382z" />
    <glyph glyph-name="Eth" unicode="&#xd0;" horiz-adv-x="788" 
d="M416 637h-142v-531h140q76 0 128 52t52 129v809q0 76 -52 128t-128 52h-140v-533h142v-106zM700 1096v-809q0 -119 -84 -203t-202 -84h-246v637h-141v106h141v639h246q118 0 202 -84t84 -202z" />
    <glyph glyph-name="Ntilde" unicode="&#xd1;" horiz-adv-x="770" 
d="M311 1556v-65h-73v65q0 39 26 66q27 27 66 27q40 0 66 -27q26 -28 26 -56t18 -28t19 18v64h73v-64q0 -40 -26 -66t-66 -26t-66 27t-26 55t-18 29q-19 -1 -19 -19zM102 0v1382h129l326 -1048h4v1048h107v-1382h-107l-348 1106h-4v-1106h-107z" />
    <glyph glyph-name="Ograve" unicode="&#xd2;" horiz-adv-x="716" 
d="M459 1464l-201 90v107l201 -90v-107zM92 246v891q0 111 78 189t188 77q110 0 189 -78q78 -78 78 -188v-891q0 -111 -78 -189q-78 -77 -189 -77q-110 0 -188 78t-78 188zM199 1137v-891q0 -66 47 -113q46 -47 112 -47t113 47t47 113v891q0 67 -47 113t-113 46t-112 -46
t-47 -113z" />
    <glyph glyph-name="Oacute" unicode="&#xd3;" horiz-adv-x="716" 
d="M459 1554l-201 -90v107l201 90v-107zM92 246v891q0 111 78 189t188 77q110 0 189 -78q78 -78 78 -188v-891q0 -111 -78 -189q-78 -77 -189 -77q-110 0 -188 78t-78 188zM199 1137v-891q0 -66 47 -113q46 -47 112 -47t113 47t47 113v891q0 67 -47 113t-113 46t-112 -46
t-47 -113z" />
    <glyph glyph-name="Ocircumflex" unicode="&#xd4;" horiz-adv-x="716" 
d="M358 1661l140 -90v-107l-140 90l-139 -90v107zM92 246v891q0 111 78 189t188 77q110 0 189 -78q78 -78 78 -188v-891q0 -111 -78 -189q-78 -77 -189 -77q-110 0 -188 78t-78 188zM199 1137v-891q0 -66 47 -113q46 -47 112 -47t113 47t47 113v891q0 67 -47 113t-113 46
t-112 -46t-47 -113z" />
    <glyph glyph-name="Otilde" unicode="&#xd5;" horiz-adv-x="716" 
d="M285 1556v-65h-74v65q0 39 27 66q28 27 66 27t65 -27t26 -66q1 -18 19 -18t18 18v64h74v-64q0 -40 -27 -66t-65 -26t-66 27q-27 27 -26 65q0 18 -18 18t-19 -18zM92 246v891q0 111 78 189t188 77q110 0 189 -78q78 -78 78 -188v-891q0 -111 -78 -189q-78 -77 -189 -77
q-110 0 -188 78t-78 188zM199 1137v-891q0 -66 47 -113q46 -47 112 -47t113 47t47 113v891q0 67 -47 113t-113 46t-112 -46t-47 -113z" />
    <glyph glyph-name="Odieresis" unicode="&#xd6;" horiz-adv-x="716" 
d="M502 1589v-125h-107v125h107zM322 1589v-125h-107v125h107zM92 246v891q0 111 78 189t188 77q110 0 189 -78q78 -78 78 -188v-891q0 -111 -78 -189q-78 -77 -189 -77q-110 0 -188 78t-78 188zM199 1137v-891q0 -66 47 -113q46 -47 112 -47t113 47t47 113v891
q0 67 -47 113t-113 46t-112 -46t-47 -113z" />
    <glyph glyph-name="multiply" unicode="&#xd7;" 
d="M575 813l-172 -172l172 -172l-75 -76l-172 172l-172 -172l-76 76l172 172l-172 172l76 76l172 -172l172 172z" />
    <glyph glyph-name="Oslash" unicode="&#xd8;" horiz-adv-x="716" 
d="M360 1296q-68 0 -114 -47t-47 -112v-820l280 924q-51 55 -119 55zM353 86q71 0 118 47t47 113v819l-280 -924q44 -55 115 -55zM625 1137v-891q0 -111 -78 -189q-79 -77 -177 -77t-167 49l-8 -29h-93l31 102q-41 63 -41 144v891q0 111 78 189t175 77q97 0 167 -49l10 28
h92l-30 -102q41 -63 41 -143z" />
    <glyph glyph-name="Ugrave" unicode="&#xd9;" horiz-adv-x="729" 
d="M465 1464l-201 90v107l201 -90v-107zM524 1382h107v-1136q0 -111 -78 -189q-79 -77 -189 -77t-188 78t-78 188v1136h107v-1136q0 -66 47 -113t113 -47q67 0 113 47t46 113v1136z" />
    <glyph glyph-name="Uacute" unicode="&#xda;" horiz-adv-x="729" 
d="M465 1554l-201 -90v107l201 90v-107zM524 1382h107v-1136q0 -111 -78 -189q-79 -77 -189 -77t-188 78t-78 188v1136h107v-1136q0 -66 47 -113t113 -47q67 0 113 47t46 113v1136z" />
    <glyph glyph-name="Ucircumflex" unicode="&#xdb;" horiz-adv-x="729" 
d="M365 1661l139 -90v-107l-139 90l-140 -90v107zM524 1382h107v-1136q0 -111 -78 -189q-79 -77 -189 -77t-188 78t-78 188v1136h107v-1136q0 -66 47 -113t113 -47q67 0 113 47t46 113v1136z" />
    <glyph glyph-name="Udieresis" unicode="&#xdc;" horiz-adv-x="729" 
d="M508 1589v-125h-107v125h107zM328 1589v-125h-107v125h107zM524 1382h107v-1136q0 -111 -78 -189q-79 -77 -189 -77t-188 78t-78 188v1136h107v-1136q0 -66 47 -113t113 -47q67 0 113 47t46 113v1136z" />
    <glyph glyph-name="Yacute" unicode="&#xdd;" horiz-adv-x="630" 
d="M416 1554l-201 -90v107l201 90v-107zM369 0h-107v635l-248 747h107l192 -583h4l193 583h106l-247 -747v-635z" />
    <glyph glyph-name="Thorn" unicode="&#xde;" horiz-adv-x="679" 
d="M209 408h129q76 0 128 52t52 128v207q0 76 -52 128t-128 52h-129v-567zM338 301h-129v-301h-107v1382h107v-301h129q119 0 203 -84t84 -202v-207q0 -119 -84 -203t-203 -84z" />
    <glyph glyph-name="germandbls" unicode="&#xdf;" horiz-adv-x="854" 
d="M383 735v62q0 58 37 104l106 131q20 25 21 58v30q0 72 -52 124t-124 52t-124 -52t-52 -124v-1120h-107v1120q0 117 83 200t200 83t199 -83t83 -200v-30q0 -57 -37 -103l-12 -18l-94 -115q-20 -25 -21 -57v-62q0 -49 27 -76l8 -10l221 -184q72 -59 72 -168v-86
q-1 -92 -65 -157q-64 -64 -156 -64t-157 64t-64 157v98l106 13v-111q0 -47 34 -81t81 -34t81 34t34 81v86q0 49 -27 76l-8 10l-221 184q-72 59 -72 168z" />
    <glyph glyph-name="agrave" unicode="&#xe0;" horiz-adv-x="587" 
d="M389 1102l-201 90v106l201 -90v-106zM498 801v-658q0 -16 11 -26t26 -11v-106q-66 0 -109 47q-62 -57 -152 -57t-154 64t-65 157v113q0 45 23 84t45 55l180 104q34 21 62 59q27 38 26 74v101q0 43 -30 73q-31 30 -73 29q-42 0 -72 -30t-30 -72v-119l-106 -12v131
q0 86 61 147q61 62 147 62t148 -62t62 -147zM162 324v-113q0 -47 34 -81t80 -34t81 34q34 34 34 81v291l-35 -27l-157 -90q-37 -20 -37 -61z" />
    <glyph glyph-name="aacute" unicode="&#xe1;" horiz-adv-x="587" 
d="M389 1192l-201 -90v106l201 90v-106zM498 801v-658q0 -16 11 -26t26 -11v-106q-66 0 -109 47q-62 -57 -152 -57t-154 64t-65 157v113q0 45 23 84t45 55l180 104q34 21 62 59q27 38 26 74v101q0 43 -30 73q-31 30 -73 29q-42 0 -72 -30t-30 -72v-119l-106 -12v131
q0 86 61 147q61 62 147 62t148 -62t62 -147zM162 324v-113q0 -47 34 -81t80 -34t81 34q34 34 34 81v291l-35 -27l-157 -90q-37 -20 -37 -61z" />
    <glyph glyph-name="acircumflex" unicode="&#xe2;" horiz-adv-x="587" 
d="M289 1298l139 -90v-106l-139 90l-139 -90v106zM498 801v-658q0 -16 11 -26t26 -11v-106q-66 0 -109 47q-62 -57 -152 -57t-154 64t-65 157v113q0 45 23 84t45 55l180 104q34 21 62 59q27 38 26 74v101q0 43 -30 73q-31 30 -73 29q-42 0 -72 -30t-30 -72v-119l-106 -12
v131q0 86 61 147q61 62 147 62t148 -62t62 -147zM162 324v-113q0 -47 34 -81t80 -34t81 34q34 34 34 81v291l-35 -27l-157 -90q-37 -20 -37 -61z" />
    <glyph glyph-name="atilde" unicode="&#xe3;" horiz-adv-x="587" 
d="M215 1194v-66h-74v66q0 39 27 66q28 26 66 26t65 -26t27 -56q0 -28 18 -28t18 18v63h74v-63q0 -39 -26 -66q-26 -26 -66 -26t-66 26t-26 66q0 18 -18 18t-19 -18zM498 801v-658q0 -16 11 -26t26 -11v-106q-66 0 -109 47q-62 -57 -152 -57t-154 64t-65 157v113q0 45 23 84
t45 55l180 104q34 21 62 59q27 38 26 74v101q0 43 -30 73q-31 30 -73 29q-42 0 -72 -30t-30 -72v-119l-106 -12v131q0 86 61 147q61 62 147 62t148 -62t62 -147zM162 324v-113q0 -47 34 -81t80 -34t81 34q34 34 34 81v291l-35 -27l-157 -90q-37 -20 -37 -61z" />
    <glyph glyph-name="adieresis" unicode="&#xe4;" horiz-adv-x="587" 
d="M432 1227v-125h-106v125h106zM252 1227v-125h-107v125h107zM498 801v-658q0 -16 11 -26t26 -11v-106q-66 0 -109 47q-62 -57 -152 -57t-154 64t-65 157v113q0 45 23 84t45 55l180 104q34 21 62 59q27 38 26 74v101q0 43 -30 73q-31 30 -73 29q-42 0 -72 -30t-30 -72v-119
l-106 -12v131q0 86 61 147q61 62 147 62t148 -62t62 -147zM162 324v-113q0 -47 34 -81t80 -34t81 34q34 34 34 81v291l-35 -27l-157 -90q-37 -20 -37 -61z" />
    <glyph glyph-name="aring" unicode="&#xe5;" horiz-adv-x="587" 
d="M223 1233q-1 -29 19 -47t47 -18t46 18t19 47t-19 47t-46 18t-47 -18t-19 -47zM158 1233q0 53 39 92t92 39t92 -39t39 -92t-39 -92t-92 -39t-92 39t-39 92zM498 801v-658q0 -16 11 -26t26 -11v-106q-66 0 -109 47q-62 -57 -152 -57t-154 64t-65 157v113q0 45 23 84t45 55
l180 104q34 21 62 59q27 38 26 74v101q0 43 -30 73q-31 30 -73 29q-42 0 -72 -30t-30 -72v-119l-106 -12v131q0 86 61 147q61 62 147 62t148 -62t62 -147zM162 324v-113q0 -47 34 -81t80 -34t81 34q34 34 34 81v291l-35 -27l-157 -90q-37 -20 -37 -61z" />
    <glyph glyph-name="ae" unicode="&#xe6;" horiz-adv-x="901" 
d="M727 211v119l107 12v-131q0 -92 -65 -157q-65 -64 -167 -64t-158 96q-56 -96 -158 -96t-166 64t-65 157v113q0 42 23 80t45 55l186 102q8 4 23 14q14 9 37 47t22 78v101q0 43 -30 73q-31 30 -73 29q-42 0 -72 -30t-30 -72v-119l-106 -12v131q0 86 61 147q61 62 157 62
t151 -95q55 95 155 95t165 -65t65 -157v-307h-336v-270q0 -47 34 -81t80 -34q47 0 81 34t34 81zM498 788v-200h229v200q0 47 -34 81t-81 34q-46 0 -80 -34t-34 -81zM162 324v-113q0 -47 34 -81t80 -34t81 34q34 34 34 81v287l-33 -25l-159 -88q-37 -20 -37 -61z" />
    <glyph glyph-name="ccedilla" unicode="&#xe7;" horiz-adv-x="579" 
d="M412 330h106v-119q0 -85 -55 -147t-139 -72v-35q36 -6 60 -34q24 -29 24 -69t-30 -70t-73 -30t-73 30t-29 73h65q0 -17 12 -27t25 -10q14 0 26 10q11 10 11 26t-11 27q-11 10 -26 11h-35v98q-84 10 -139 71t-55 148v577q0 92 64 157q65 65 157 65t157 -65t64 -157v-116
l-106 -13v129q0 47 -34 81t-81 34t-81 -34t-34 -81v-577q0 -47 34 -81t81 -34t81 34t34 81v119z" />
    <glyph glyph-name="egrave" unicode="&#xe8;" horiz-adv-x="585" 
d="M397 1102l-200 90v106l200 -90v-106zM182 788v-200h230v200q0 47 -34 81t-81 34t-81 -34t-34 -81zM518 211q0 -92 -64 -157q-64 -64 -157 -64q-92 0 -157 64t-64 157v577q0 92 64 157q65 65 157 65t157 -65t64 -157v-307h-336v-270q0 -47 34 -81t81 -34t81 34t34 81v119
l106 12v-131z" />
    <glyph glyph-name="eacute" unicode="&#xe9;" horiz-adv-x="585" 
d="M397 1192l-200 -90v106l200 90v-106zM182 788v-200h230v200q0 47 -34 81t-81 34t-81 -34t-34 -81zM518 211q0 -92 -64 -157q-64 -64 -157 -64q-92 0 -157 64t-64 157v577q0 92 64 157q65 65 157 65t157 -65t64 -157v-307h-336v-270q0 -47 34 -81t81 -34t81 34t34 81v119
l106 12v-131z" />
    <glyph glyph-name="ecircumflex" unicode="&#xea;" horiz-adv-x="585" 
d="M297 1298l139 -90v-106l-139 90l-139 -90v106zM182 788v-200h230v200q0 47 -34 81t-81 34t-81 -34t-34 -81zM518 211q0 -92 -64 -157q-64 -64 -157 -64q-92 0 -157 64t-64 157v577q0 92 64 157q65 65 157 65t157 -65t64 -157v-307h-336v-270q0 -47 34 -81t81 -34t81 34
t34 81v119l106 12v-131z" />
    <glyph glyph-name="edieresis" unicode="&#xeb;" horiz-adv-x="585" 
d="M440 1227v-125h-106v125h106zM260 1227v-125h-106v125h106zM182 788v-200h230v200q0 47 -34 81t-81 34t-81 -34t-34 -81zM518 211q0 -92 -64 -157q-64 -64 -157 -64q-92 0 -157 64t-64 157v577q0 92 64 157q65 65 157 65t157 -65t64 -157v-307h-336v-270q0 -47 34 -81
t81 -34t81 34t34 81v119l106 12v-131z" />
    <glyph glyph-name="igrave" unicode="&#xec;" horiz-adv-x="282" 
d="M242 1102l-201 90v106l201 -90v-106zM195 999v-999h-107v999h107z" />
    <glyph glyph-name="iacute" unicode="&#xed;" horiz-adv-x="282" 
d="M242 1192l-201 -90v106l201 90v-106zM195 999v-999h-107v999h107z" />
    <glyph glyph-name="icircumflex" unicode="&#xee;" horiz-adv-x="282" 
d="M141 1298l140 -90v-106l-140 90l-139 -90v106zM195 999v-999h-107v999h107z" />
    <glyph glyph-name="idieresis" unicode="&#xef;" horiz-adv-x="282" 
d="M285 1227v-125h-107v125h107zM104 1227v-125h-106v125h106zM195 999v-999h-107v999h107z" />
    <glyph glyph-name="eth" unicode="&#xf0;" horiz-adv-x="604" 
d="M412 211v577q0 47 -34 81t-81 34t-81 -34t-34 -81v-577q0 -47 34 -81t81 -34t81 34t34 81zM309 1130v93h103v147l106 12v-159h103v-93h-103v-919q0 -92 -64 -157q-64 -64 -157 -64q-92 0 -157 64t-64 157v577q0 92 57 157t139 65t140 -70v190h-103z" />
    <glyph glyph-name="ntilde" unicode="&#xf1;" horiz-adv-x="616" 
d="M236 1194v-66h-74v66q0 39 26 66q27 26 66 26q40 0 66 -26t26 -66q0 -18 18 -18t19 18v63h74v-63q0 -39 -27 -66q-28 -26 -66 -26t-65 26t-27 56q0 28 -18 28t-18 -18zM195 0h-107v999h74l18 -77q56 88 146 88t147 -65t57 -157v-788h-106v788q0 47 -34 81t-81 34t-81 -34
t-33 -81v-788z" />
    <glyph glyph-name="ograve" unicode="&#xf2;" horiz-adv-x="593" 
d="M397 1102l-200 90v106l200 -90v-106zM182 788v-577q0 -47 34 -81t81 -34t81 34t34 81v577q0 47 -34 81t-81 34t-81 -34t-34 -81zM76 211v577q0 92 64 157q65 65 157 65t157 -65t64 -157v-577q0 -92 -64 -157q-64 -64 -157 -64q-92 0 -157 64q-64 65 -64 157z" />
    <glyph glyph-name="oacute" unicode="&#xf3;" horiz-adv-x="593" 
d="M397 1192l-200 -90v106l200 90v-106zM182 788v-577q0 -47 34 -81t81 -34t81 34t34 81v577q0 47 -34 81t-81 34t-81 -34t-34 -81zM76 211v577q0 92 64 157q65 65 157 65t157 -65t64 -157v-577q0 -92 -64 -157q-64 -64 -157 -64q-92 0 -157 64q-64 65 -64 157z" />
    <glyph glyph-name="ocircumflex" unicode="&#xf4;" horiz-adv-x="593" 
d="M297 1298l139 -90v-106l-139 90l-139 -90v106zM182 788v-577q0 -47 34 -81t81 -34t81 34t34 81v577q0 47 -34 81t-81 34t-81 -34t-34 -81zM76 211v577q0 92 64 157q65 65 157 65t157 -65t64 -157v-577q0 -92 -64 -157q-64 -64 -157 -64q-92 0 -157 64q-64 65 -64 157z
" />
    <glyph glyph-name="otilde" unicode="&#xf5;" horiz-adv-x="593" 
d="M223 1194v-66h-73v66q0 39 26 66q27 26 66 26q40 0 66 -26t26 -56q0 -28 18 -28t19 18v63h73v-63q0 -39 -26 -66q-26 -26 -66 -26t-66 26t-26 56q0 28 -18 28t-19 -18zM182 788v-577q0 -47 34 -81t81 -34t81 34t34 81v577q0 47 -34 81t-81 34t-81 -34t-34 -81zM76 211
v577q0 92 64 157q65 65 157 65t157 -65t64 -157v-577q0 -92 -64 -157q-64 -64 -157 -64q-92 0 -157 64q-64 65 -64 157z" />
    <glyph glyph-name="odieresis" unicode="&#xf6;" horiz-adv-x="593" 
d="M440 1227v-125h-106v125h106zM260 1227v-125h-106v125h106zM182 788v-577q0 -47 34 -81t81 -34t81 34t34 81v577q0 47 -34 81t-81 34t-81 -34t-34 -81zM76 211v577q0 92 64 157q65 65 157 65t157 -65t64 -157v-577q0 -92 -64 -157q-64 -64 -157 -64q-92 0 -157 64
q-64 65 -64 157z" />
    <glyph glyph-name="divide" unicode="&#xf7;" horiz-adv-x="671" 
d="M592 588h-512v106h512v-106zM264 455q0 29 22 51t50 20q28 0 50 -22t22 -50t-22 -50t-50 -22t-50 22t-22 51zM264 827q0 29 22 51t50 22t50 -22t22 -51t-22 -51t-50 -20q-28 0 -50 21t-22 50z" />
    <glyph glyph-name="oslash" unicode="&#xf8;" horiz-adv-x="589" 
d="M296 96q46 0 80 34t34 81v496l-193 -582q33 -29 79 -29zM180 788v-499l191 583q-35 31 -79 31t-78 -34t-34 -81zM516 788v-577q0 -92 -64 -157t-157 -64q-61 0 -113 28l-6 -18h-92l29 84q-39 59 -39 127v577q0 92 64 157t142 65t128 -31l6 20h92l-29 -86q39 -55 39 -125z
" />
    <glyph glyph-name="ugrave" unicode="&#xf9;" horiz-adv-x="616" 
d="M408 1102l-201 90v106l201 -90v-106zM422 999h106v-999h-73l-19 78q-57 -88 -146 -88t-147 64q-57 65 -57 157v788h107v-788q-1 -47 33 -81t81 -34t81 34t34 81v788z" />
    <glyph glyph-name="uacute" unicode="&#xfa;" horiz-adv-x="616" 
d="M408 1192l-201 -90v106l201 90v-106zM422 999h106v-999h-73l-19 78q-57 -88 -146 -88t-147 64q-57 65 -57 157v788h107v-788q-1 -47 33 -81t81 -34t81 34t34 81v788z" />
    <glyph glyph-name="ucircumflex" unicode="&#xfb;" horiz-adv-x="616" 
d="M307 1298l139 -90v-106l-139 90l-139 -90v106zM422 999h106v-999h-73l-19 78q-57 -88 -146 -88t-147 64q-57 65 -57 157v788h107v-788q-1 -47 33 -81t81 -34t81 34t34 81v788z" />
    <glyph glyph-name="udieresis" unicode="&#xfc;" horiz-adv-x="616" 
d="M451 1227v-125h-107v125h107zM270 1227v-125h-106v125h106zM422 999h106v-999h-73l-19 78q-57 -88 -146 -88t-147 64q-57 65 -57 157v788h107v-788q-1 -47 33 -81t81 -34t81 34t34 81v788z" />
    <glyph glyph-name="yacute" unicode="&#xfd;" horiz-adv-x="526" 
d="M365 1192l-201 -90v106l201 90v-106zM76 -332v107q42 -1 70 27t36 55l8 28l21 115l-178 999h106l123 -784h4l123 784h107l-199 -1114q-2 -8 -5 -23q-2 -15 -20 -52t-40 -66q-22 -28 -64 -52t-92 -24z" />
    <glyph glyph-name="thorn" unicode="&#xfe;" horiz-adv-x="610" 
d="M195 788v-577q-1 -47 33 -81t81 -34t81 34t34 81v577q0 47 -34 81t-81 34t-81 -34t-33 -81zM334 1010q82 0 139 -65t57 -157v-577q0 -92 -57 -157q-57 -64 -139 -64t-139 69v-378l-107 -13v1702l107 12v-442q57 70 139 70z" />
    <glyph glyph-name="ydieresis" unicode="&#xff;" horiz-adv-x="526" 
d="M76 -332v107q42 -1 70 27t36 55l8 28l21 115l-178 999h106l123 -784h4l123 784h107l-199 -1114q-2 -8 -5 -23q-2 -15 -20 -52t-40 -66q-22 -28 -64 -52t-92 -24zM408 1227v-125h-107v125h107zM227 1227v-125h-106v125h106z" />
    <glyph glyph-name="dotlessi" unicode="&#x131;" horiz-adv-x="282" 
d="M195 999v-999h-107v999h107z" />
    <glyph glyph-name="Lslash" unicode="&#x141;" horiz-adv-x="591" 
d="M115 1382h106v-442l135 57v-92l-135 -57v-742h334v-106h-440v801l-103 -43v92l103 43v489z" />
    <glyph glyph-name="lslash" unicode="&#x142;" horiz-adv-x="401" 
d="M256 137q0 -16 12 -28t29 -13v-106q-61 0 -104 43t-43 104v672l-119 -51v92l119 51v469l106 12v-436l119 51v-92l-119 -51v-717z" />
    <glyph glyph-name="OE" unicode="&#x152;" horiz-adv-x="1019" 
d="M199 1137v-891q0 -66 47 -113q46 -47 112 -47t113 47t47 113v891q0 67 -47 113t-113 46t-112 -46t-47 -113zM92 246v891q0 111 78 189t188 77q49 0 105 -21h498v-106h-375q39 -66 39 -139v-392h247v-108h-247v-391q0 -78 -39 -140h391v-106h-514q-55 -20 -105 -20
q-110 0 -188 78t-78 188z" />
    <glyph glyph-name="oe" unicode="&#x153;" horiz-adv-x="921" 
d="M518 481v-270q0 -47 34 -81t81 -34t81 34t34 81v119l106 12v-131q0 -92 -64 -157q-64 -64 -166 -64t-159 96q-55 -96 -157 -96t-168 64q-65 64 -64 157v577q0 92 64 157t166 65t159 -99q59 99 159 99t166 -65q65 -65 64 -157v-307h-336zM518 788v-200h230v200
q0 47 -34 81t-81 34t-81 -34t-34 -81zM182 788v-577q0 -47 34 -81t81 -34t81 34t34 81v577q0 47 -34 81t-81 34t-81 -34t-34 -81z" />
    <glyph glyph-name="Scaron" unicode="&#x160;" horiz-adv-x="671" 
d="M475 1573l-139 -90l-139 90v106l139 -90l139 90v-106zM70 1044v93q0 111 78 189t188 77q110 0 188 -78t78 -188v-172l-106 -13v185q0 67 -47 113t-113 46t-113 -47t-47 -112v-93q0 -58 29 -90l334 -399q63 -76 63 -176v-133q0 -111 -78 -189q-78 -77 -188 -77t-189 78
q-78 78 -77 188v203l106 12v-215q0 -66 47 -113t113 -47t113 47t47 113v133q0 51 -39 106l-326 387q-61 74 -61 172z" />
    <glyph glyph-name="scaron" unicode="&#x161;" horiz-adv-x="559" 
d="M418 1192l-139 -90l-140 90v106l140 -90l139 90v-106zM393 211v86q0 54 -35 86l-221 184q-72 59 -71 168v62q0 88 62 150q62 63 150 63t151 -62q62 -62 63 -151v-92l-107 -13v105q0 45 -31 75q-32 30 -76 31q-44 0 -75 -31t-31 -75v-62q0 -54 25 -76l231 -194
q72 -59 72 -168v-86q0 -92 -65 -157q-65 -64 -157 -64t-156 64q-65 64 -65 157v98l107 13v-111q0 -47 34 -81t81 -34t81 34t33 81z" />
    <glyph glyph-name="Ydieresis" unicode="&#x178;" horiz-adv-x="630" 
d="M459 1610v-125h-107v125h107zM279 1610v-125h-107v125h107zM369 0h-107v635l-248 747h107l192 -583h4l193 583h106l-247 -747v-635z" />
    <glyph glyph-name="Zcaron" unicode="&#x17d;" horiz-adv-x="610" 
d="M440 1573l-139 -90l-139 90v106l139 -90l139 90v-106zM37 0v53l407 1223h-387v106h508v-53l-403 -1223h403v-106h-528z" />
    <glyph glyph-name="zcaron" unicode="&#x17e;" horiz-adv-x="495" 
d="M387 1192l-139 -90l-139 90v106l139 -90l139 90v-106zM49 893v106h397v-53l-274 -840h274v-106h-397v53l273 840h-273z" />
    <glyph glyph-name="florin" unicode="&#x192;" horiz-adv-x="397" 
d="M27 893v106h110v187q-1 82 57 139t140 57h39v-106h-39q-37 0 -64 -27t-26 -63v-187h129v-106h-129v-1065q0 -82 -58 -139t-139 -58h-39v107h39q37 0 64 26t26 64v1065h-110z" />
    <glyph glyph-name="circumflex" unicode="&#x2c6;" horiz-adv-x="339" 
d="M170 1202l139 -90v-106l-139 90l-139 -90v106z" />
    <glyph glyph-name="caron" unicode="&#x2c7;" horiz-adv-x="339" 
d="M309 1096l-139 -90l-139 90v106l139 -90l139 90v-106z" />
    <glyph glyph-name="breve" unicode="&#x2d8;" horiz-adv-x="339" 
d="M223 1165h86q0 -59 -40 -99t-99 -40t-99 40t-40 99h86q0 -23 15 -38t38 -15t38 15t15 38z" />
    <glyph glyph-name="dotaccent" unicode="&#x2d9;" horiz-adv-x="167" 
d="M137 1200v-125h-106v125h106z" />
    <glyph glyph-name="ring" unicode="&#x2da;" horiz-adv-x="344" 
d="M106 1487q0 -29 18 -47t48 -18q29 0 47 18t19 47q0 29 -18 47t-48 18t-48 -18t-18 -47zM41 1487q0 53 39 92t92 39t92 -39t39 -92t-39 -92t-92 -39t-92 39t-39 92z" />
    <glyph glyph-name="ogonek" unicode="&#x2db;" horiz-adv-x="278" 
d="M248 -131q0 -47 -34 -81t-79 -34t-75 30t-29 73q0 76 82 143h41q-68 -61 -68 -129q0 -23 13 -37t33 -14t36 14q14 14 14 35h66z" />
    <glyph glyph-name="tilde" unicode="&#x2dc;" horiz-adv-x="356" 
d="M104 1098v-66h-73v66q1 40 27 66t65 26t65 -27t27 -55q0 -28 18 -29q18 0 19 19v63h74v-63q0 -39 -27 -66q-27 -26 -66 -26t-65 26t-27 56q-1 28 -19 28t-18 -18z" />
    <glyph glyph-name="hungarumlaut" unicode="&#x2dd;" horiz-adv-x="524" 
d="M494 1149l-201 -90v106l201 90v-106zM231 1149l-200 -90v106l200 90v-106z" />
    <glyph glyph-name="pi" unicode="&#x3c0;" horiz-adv-x="706" 
d="M25 893v106h655v-106h-107v-893h-106v893h-229v-893h-107v893h-106z" />
    <glyph glyph-name="endash" unicode="&#x2013;" horiz-adv-x="741" 
d="M662 530h-582v107h582v-107z" />
    <glyph glyph-name="emdash" unicode="&#x2014;" horiz-adv-x="905" 
d="M836 530h-766v107h766v-107z" />
    <glyph glyph-name="quoteleft" unicode="&#x2018;" horiz-adv-x="251" 
d="M72 1257q0 53 30 90q31 36 76 35v-43q-20 0 -36 -19t-17 -44h53v-146h-106v127z" />
    <glyph glyph-name="quoteright" unicode="&#x2019;" horiz-adv-x="247" 
d="M182 1255q0 -53 -30 -89t-76 -36v44q20 0 37 19q16 19 16 44h-53v145h106v-127z" />
    <glyph glyph-name="quotesinglbase" unicode="&#x201a;" horiz-adv-x="364" 
d="M236 18q0 -53 -31 -89t-76 -35v43q20 0 37 19q16 19 16 44h-53v145h107v-127z" />
    <glyph glyph-name="quotedblleft" unicode="&#x201c;" horiz-adv-x="419" 
d="M240 1257q0 53 30 90q31 36 76 35v-43q-20 0 -36 -19t-17 -44h53v-146h-106v127zM72 1257q0 53 30 90q31 36 76 35v-43q-20 0 -36 -19t-17 -44h53v-146h-106v127z" />
    <glyph glyph-name="quotedblright" unicode="&#x201d;" horiz-adv-x="415" 
d="M182 1255q0 -53 -30 -89t-76 -36v44q20 0 37 19q16 19 16 44h-53v145h106v-127zM350 1255q0 -53 -31 -89t-75 -36v44q20 0 37 19q16 19 16 44h-53v145h106v-127z" />
    <glyph glyph-name="quotedblbase" unicode="&#x201e;" horiz-adv-x="532" 
d="M236 18q0 -53 -31 -89t-76 -35v43q20 0 37 19q16 19 16 44h-53v145h107v-127zM403 18q-1 -53 -31 -89t-75 -35v43q20 0 37 19q16 19 16 44h-53v145h106v-127z" />
    <glyph glyph-name="dagger" unicode="&#x2020;" horiz-adv-x="503" 
d="M43 891v106h156v373l106 12v-385h156v-106h-156v-973l-106 -12v985h-156z" />
    <glyph glyph-name="daggerdbl" unicode="&#x2021;" horiz-adv-x="544" 
d="M63 444v107h156v342h-156v106h156v371l107 12v-383h155v-106h-155v-342h155v-107h-155v-526l-107 -12v538h-156z" />
    <glyph glyph-name="bullet" unicode="&#x2022;" horiz-adv-x="516" 
d="M115 612q0 60 42 102t101 42t101 -42t42 -102t-42 -101q-42 -42 -101 -42t-101 42t-42 101z" />
    <glyph glyph-name="ellipsis" unicode="&#x2026;" horiz-adv-x="643" 
d="M457 145h106v-145h-106v145zM268 145h107v-145h-107v145zM80 145h106v-145h-106v145z" />
    <glyph glyph-name="perthousand" unicode="&#x2030;" horiz-adv-x="1544" 
d="M1395 158v362q0 32 -23 54q-24 22 -54 22t-52 -23t-23 -53v-362q0 -31 23 -54q24 -22 54 -22t52 22t23 54zM1151 158v362q0 70 49 119t119 49t119 -49t49 -119v-362q0 -70 -49 -119t-119 -49t-119 49t-49 119zM936 158v362q0 32 -23 54t-53 22t-54 -23q-22 -23 -22 -53
v-362q0 -31 23 -54q23 -22 53 -22t54 22q22 22 22 54zM692 158v362q0 70 49 119t119 49t119 -49t49 -119v-362q0 -70 -49 -119t-119 -49t-119 49t-49 119zM303 862v363q-1 31 -23 53t-53 22t-53 -22t-22 -53v-363q0 -32 22 -54t54 -22q30 0 52 22t23 54zM59 862v363
q-1 71 49 119t120 48t118 -48q49 -50 49 -119v-363q0 -70 -49 -119t-119 -49t-119 49t-49 119zM119 47l770 1335l80 -47l-770 -1335z" />
    <glyph glyph-name="guilsinglleft" unicode="&#x2039;" horiz-adv-x="432" 
d="M254 164l-203 346l203 346h106l-202 -346l202 -346h-106z" />
    <glyph glyph-name="guilsinglright" unicode="&#x203a;" horiz-adv-x="432" 
d="M381 510l-203 -346h-106l202 346l-202 346h106z" />
    <glyph glyph-name="fraction" unicode="&#x2044;" horiz-adv-x="899" 
d="M27 47l770 1335l80 -47l-771 -1335z" />
    <glyph glyph-name="Euro" unicode="&#x20ac;" horiz-adv-x="700" 
d="M522 1137q0 67 -47 113t-113 46t-112 -47t-47 -112v-271h266v-92h-266v-172h266v-92h-266v-264q0 -66 47 -113q46 -47 112 -47t113 47t47 113v127h107v-127q0 -111 -78 -189q-78 -77 -189 -77q-110 0 -188 78t-78 188v891q0 111 78 189t188 77q110 0 189 -78
q78 -78 78 -188v-121l-107 -12v133z" />
    <glyph glyph-name="trademark" unicode="&#x2122;" horiz-adv-x="1015" 
d="M381 1382v-63h-115v-766h-65v766h-115v63h295zM520 1249v-696h-65v829h96l137 -731h2l137 731h99v-829h-66v702h-2l-133 -702h-72l-131 696h-2z" />
    <glyph glyph-name="Omega" unicode="&#x2126;" horiz-adv-x="864" 
d="M760 1075v-624q0 -66 -80 -187t-80 -158h201v-106h-307v106q0 66 79 187q80 121 80 158v624q0 92 -64 157q-65 64 -157 64t-157 -64t-64 -157v-624q0 -37 80 -158t80 -187v-106h-308v106h201q0 37 -80 158t-80 187v624q0 135 96 231t232 97q135 0 232 -96q96 -97 96 -232
z" />
    <glyph glyph-name="partialdiff" unicode="&#x2202;" horiz-adv-x="704" 
d="M502 246v321q0 66 -47 113t-113 47t-113 -47t-47 -113v-321q0 -66 47 -113t113 -47t113 47t47 113zM76 246v321q0 111 78 189t178 78t170 -52v355q0 67 -47 113t-113 46t-113 -47t-47 -112v-127l-106 12v115q0 111 78 189t188 77q110 0 188 -78t78 -188v-891
q0 -111 -78 -189q-78 -77 -188 -77t-188 78t-78 188z" />
    <glyph glyph-name="Delta" unicode="&#x2206;" horiz-adv-x="819" 
d="M408 1264l-252 -1158h506l-250 1158h-4zM793 0h-766l292 1382h181z" />
    <glyph glyph-name="product" unicode="&#x220f;" horiz-adv-x="737" 
d="M528 1276h-319v-1276h-107v1382h533v-1382h-107v1276z" />
    <glyph glyph-name="summation" unicode="&#x2211;" horiz-adv-x="663" 
d="M629 1382v-106h-447l316 -584l-316 -586h447v-106h-602l356 692l-356 690h602z" />
    <glyph glyph-name="minus" unicode="&#x2212;" horiz-adv-x="679" 
d="M596 588h-512v106h512v-106z" />
    <glyph glyph-name="radical" unicode="&#x221a;" horiz-adv-x="737" 
d="M51 893v106h176l123 -784h4l232 1464h807v-106h-719l-258 -1573h-127l-152 893h-86z" />
    <glyph glyph-name="infinity" unicode="&#x221e;" horiz-adv-x="1138" 
d="M850 782h-88q-57 0 -98 -41t-41 -98t41 -98t98 -41h88q59 0 99 41t40 98t-40 98t-99 41zM289 504h88q57 0 98 41t41 98t-41 98t-98 41h-88q-59 0 -99 -41t-40 -98t40 -98t99 -41zM289 889h88q119 0 192 -94q74 94 193 94h88q100 0 173 -72t73 -174t-73 -174t-173 -72h-88
q-117 0 -193 92q-76 -92 -192 -92h-88q-100 0 -173 72t-73 174t73 174t173 72z" />
    <glyph glyph-name="integral" unicode="&#x222b;" horiz-adv-x="626" 
d="M367 1186v-1358q1 -82 -57 -139t-140 -57t-139 56q-57 58 -58 140h107q0 -37 26 -64q26 -26 64 -26t64 26t26 64v1358q0 82 57 139t139 57t140 -57q57 -57 57 -139h-106q0 38 -27 64q-28 26 -64 26t-62 -26t-27 -64z" />
    <glyph glyph-name="approxequal" unicode="&#x2248;" horiz-adv-x="626" 
d="M436 547h107q0 -70 -39 -109q-38 -39 -94 -39t-112 41t-67 41q-41 0 -41 -41h-106q0 70 39 109t93 39t106 -41t73 -41q41 0 41 41zM436 842h107q0 -70 -39 -109q-38 -39 -94 -39t-112 41t-67 41q-41 0 -41 -41h-106q0 70 39 109t93 39t106 -41t73 -41q41 0 41 41z" />
    <glyph glyph-name="notequal" unicode="&#x2260;" horiz-adv-x="598" 
d="M84 547h135l53 188h-188v107h219l43 143h107l-43 -143h104v-107h-135l-53 -188h188v-107h-219l-41 -143h-107l41 143h-104v107z" />
    <glyph glyph-name="lessequal" unicode="&#x2264;" horiz-adv-x="598" 
d="M84 590v106l303 291h127l-303 -291h303v-106h-430zM84 401h430v-106h-430v106z" />
    <glyph glyph-name="greaterequal" unicode="&#x2265;" horiz-adv-x="598" 
d="M514 590h-430v106h303l-303 291h127l303 -291v-106zM84 401h430v-106h-430v106z" />
    <glyph glyph-name="lozenge" unicode="&#x25ca;" horiz-adv-x="712" 
d="M358 176l185 514l-185 512h-4l-184 -512l184 -514h4zM293 59l-230 631l230 631h127l229 -631l-229 -631h-127z" />
    </font>
</defs>
</svg>
